<mxfile host="app.diagrams.net" agent="Mozilla/5.0 (Macintosh; Intel Mac OS X 10_15_7) AppleWebKit/537.36 (KHTML, like Gecko) Chrome/128.0.0.0 Safari/537.36" version="24.7.10">
  <diagram name="페이지-1" id="xSXBN2tlv9q7AEDJOdf1">
    <mxGraphModel dx="984" dy="558" grid="1" gridSize="10" guides="1" tooltips="1" connect="1" arrows="1" fold="1" page="1" pageScale="1" pageWidth="827" pageHeight="1169" math="0" shadow="0">
      <root>
        <mxCell id="0" />
        <mxCell id="1" parent="0" />
        <mxCell id="gH7tVVNztH7blLq4msnQ-1" value="" style="shape=table;startSize=0;container=1;collapsible=0;childLayout=tableLayout;" vertex="1" parent="1">
          <mxGeometry x="150" y="110" width="240" height="210" as="geometry" />
        </mxCell>
        <mxCell id="gH7tVVNztH7blLq4msnQ-2" value="" style="shape=tableRow;horizontal=0;startSize=0;swimlaneHead=0;swimlaneBody=0;strokeColor=inherit;top=0;left=0;bottom=0;right=0;collapsible=0;dropTarget=0;fillColor=none;points=[[0,0.5],[1,0.5]];portConstraint=eastwest;" vertex="1" parent="gH7tVVNztH7blLq4msnQ-1">
          <mxGeometry width="240" height="53" as="geometry" />
        </mxCell>
        <mxCell id="gH7tVVNztH7blLq4msnQ-3" value="1" style="shape=partialRectangle;html=1;whiteSpace=wrap;connectable=0;overflow=hidden;top=0;left=0;bottom=0;right=0;pointerEvents=1;" vertex="1" parent="gH7tVVNztH7blLq4msnQ-2">
          <mxGeometry width="60" height="53" as="geometry">
            <mxRectangle width="60" height="53" as="alternateBounds" />
          </mxGeometry>
        </mxCell>
        <mxCell id="gH7tVVNztH7blLq4msnQ-4" value="1" style="shape=partialRectangle;html=1;whiteSpace=wrap;connectable=0;overflow=hidden;top=0;left=0;bottom=0;right=0;pointerEvents=1;" vertex="1" parent="gH7tVVNztH7blLq4msnQ-2">
          <mxGeometry x="60" width="60" height="53" as="geometry">
            <mxRectangle width="60" height="53" as="alternateBounds" />
          </mxGeometry>
        </mxCell>
        <mxCell id="gH7tVVNztH7blLq4msnQ-5" value="1" style="shape=partialRectangle;html=1;whiteSpace=wrap;connectable=0;overflow=hidden;top=0;left=0;bottom=0;right=0;pointerEvents=1;" vertex="1" parent="gH7tVVNztH7blLq4msnQ-2">
          <mxGeometry x="120" width="60" height="53" as="geometry">
            <mxRectangle width="60" height="53" as="alternateBounds" />
          </mxGeometry>
        </mxCell>
        <mxCell id="gH7tVVNztH7blLq4msnQ-6" value="0" style="shape=partialRectangle;html=1;whiteSpace=wrap;connectable=0;strokeColor=#6c8ebf;overflow=hidden;fillColor=#dae8fc;top=0;left=0;bottom=0;right=0;pointerEvents=1;" vertex="1" parent="gH7tVVNztH7blLq4msnQ-2">
          <mxGeometry x="180" width="60" height="53" as="geometry">
            <mxRectangle width="60" height="53" as="alternateBounds" />
          </mxGeometry>
        </mxCell>
        <mxCell id="gH7tVVNztH7blLq4msnQ-7" value="" style="shape=tableRow;horizontal=0;startSize=0;swimlaneHead=0;swimlaneBody=0;strokeColor=inherit;top=0;left=0;bottom=0;right=0;collapsible=0;dropTarget=0;fillColor=none;points=[[0,0.5],[1,0.5]];portConstraint=eastwest;" vertex="1" parent="gH7tVVNztH7blLq4msnQ-1">
          <mxGeometry y="53" width="240" height="52" as="geometry" />
        </mxCell>
        <mxCell id="gH7tVVNztH7blLq4msnQ-8" value="0" style="shape=partialRectangle;html=1;whiteSpace=wrap;connectable=0;strokeColor=#6c8ebf;overflow=hidden;fillColor=#dae8fc;top=0;left=0;bottom=0;right=0;pointerEvents=1;" vertex="1" parent="gH7tVVNztH7blLq4msnQ-7">
          <mxGeometry width="60" height="52" as="geometry">
            <mxRectangle width="60" height="52" as="alternateBounds" />
          </mxGeometry>
        </mxCell>
        <mxCell id="gH7tVVNztH7blLq4msnQ-9" value="0" style="shape=partialRectangle;html=1;whiteSpace=wrap;connectable=0;strokeColor=#d6b656;overflow=hidden;fillColor=#fff2cc;top=0;left=0;bottom=0;right=0;pointerEvents=1;" vertex="1" parent="gH7tVVNztH7blLq4msnQ-7">
          <mxGeometry x="60" width="60" height="52" as="geometry">
            <mxRectangle width="60" height="52" as="alternateBounds" />
          </mxGeometry>
        </mxCell>
        <mxCell id="gH7tVVNztH7blLq4msnQ-10" value="1" style="shape=partialRectangle;html=1;whiteSpace=wrap;connectable=0;overflow=hidden;top=0;left=0;bottom=0;right=0;pointerEvents=1;" vertex="1" parent="gH7tVVNztH7blLq4msnQ-7">
          <mxGeometry x="120" width="60" height="52" as="geometry">
            <mxRectangle width="60" height="52" as="alternateBounds" />
          </mxGeometry>
        </mxCell>
        <mxCell id="gH7tVVNztH7blLq4msnQ-11" value="0" style="shape=partialRectangle;html=1;whiteSpace=wrap;connectable=0;strokeColor=#6c8ebf;overflow=hidden;fillColor=#dae8fc;top=0;left=0;bottom=0;right=0;pointerEvents=1;" vertex="1" parent="gH7tVVNztH7blLq4msnQ-7">
          <mxGeometry x="180" width="60" height="52" as="geometry">
            <mxRectangle width="60" height="52" as="alternateBounds" />
          </mxGeometry>
        </mxCell>
        <mxCell id="gH7tVVNztH7blLq4msnQ-12" value="" style="shape=tableRow;horizontal=0;startSize=0;swimlaneHead=0;swimlaneBody=0;strokeColor=inherit;top=0;left=0;bottom=0;right=0;collapsible=0;dropTarget=0;fillColor=none;points=[[0,0.5],[1,0.5]];portConstraint=eastwest;" vertex="1" parent="gH7tVVNztH7blLq4msnQ-1">
          <mxGeometry y="105" width="240" height="53" as="geometry" />
        </mxCell>
        <mxCell id="gH7tVVNztH7blLq4msnQ-13" value="0" style="shape=partialRectangle;html=1;whiteSpace=wrap;connectable=0;strokeColor=#6c8ebf;overflow=hidden;fillColor=#dae8fc;top=0;left=0;bottom=0;right=0;pointerEvents=1;" vertex="1" parent="gH7tVVNztH7blLq4msnQ-12">
          <mxGeometry width="60" height="53" as="geometry">
            <mxRectangle width="60" height="53" as="alternateBounds" />
          </mxGeometry>
        </mxCell>
        <mxCell id="gH7tVVNztH7blLq4msnQ-14" value="1" style="shape=partialRectangle;html=1;whiteSpace=wrap;connectable=0;overflow=hidden;top=0;left=0;bottom=0;right=0;pointerEvents=1;" vertex="1" parent="gH7tVVNztH7blLq4msnQ-12">
          <mxGeometry x="60" width="60" height="53" as="geometry">
            <mxRectangle width="60" height="53" as="alternateBounds" />
          </mxGeometry>
        </mxCell>
        <mxCell id="gH7tVVNztH7blLq4msnQ-15" value="1" style="shape=partialRectangle;html=1;whiteSpace=wrap;connectable=0;overflow=hidden;top=0;left=0;bottom=0;right=0;pointerEvents=1;" vertex="1" parent="gH7tVVNztH7blLq4msnQ-12">
          <mxGeometry x="120" width="60" height="53" as="geometry">
            <mxRectangle width="60" height="53" as="alternateBounds" />
          </mxGeometry>
        </mxCell>
        <mxCell id="gH7tVVNztH7blLq4msnQ-16" value="1" style="shape=partialRectangle;html=1;whiteSpace=wrap;connectable=0;overflow=hidden;top=0;left=0;bottom=0;right=0;pointerEvents=1;" vertex="1" parent="gH7tVVNztH7blLq4msnQ-12">
          <mxGeometry x="180" width="60" height="53" as="geometry">
            <mxRectangle width="60" height="53" as="alternateBounds" />
          </mxGeometry>
        </mxCell>
        <mxCell id="gH7tVVNztH7blLq4msnQ-17" value="" style="shape=tableRow;horizontal=0;startSize=0;swimlaneHead=0;swimlaneBody=0;strokeColor=inherit;top=0;left=0;bottom=0;right=0;collapsible=0;dropTarget=0;fillColor=none;points=[[0,0.5],[1,0.5]];portConstraint=eastwest;" vertex="1" parent="gH7tVVNztH7blLq4msnQ-1">
          <mxGeometry y="158" width="240" height="52" as="geometry" />
        </mxCell>
        <mxCell id="gH7tVVNztH7blLq4msnQ-18" value="0" style="shape=partialRectangle;html=1;whiteSpace=wrap;connectable=0;strokeColor=#6c8ebf;overflow=hidden;fillColor=#dae8fc;top=0;left=0;bottom=0;right=0;pointerEvents=1;" vertex="1" parent="gH7tVVNztH7blLq4msnQ-17">
          <mxGeometry width="60" height="52" as="geometry">
            <mxRectangle width="60" height="52" as="alternateBounds" />
          </mxGeometry>
        </mxCell>
        <mxCell id="gH7tVVNztH7blLq4msnQ-19" value="0" style="shape=partialRectangle;html=1;whiteSpace=wrap;connectable=0;strokeColor=#6c8ebf;overflow=hidden;fillColor=#dae8fc;top=0;left=0;bottom=0;right=0;pointerEvents=1;" vertex="1" parent="gH7tVVNztH7blLq4msnQ-17">
          <mxGeometry x="60" width="60" height="52" as="geometry">
            <mxRectangle width="60" height="52" as="alternateBounds" />
          </mxGeometry>
        </mxCell>
        <mxCell id="gH7tVVNztH7blLq4msnQ-20" value="1" style="shape=partialRectangle;html=1;whiteSpace=wrap;connectable=0;overflow=hidden;top=0;left=0;bottom=0;right=0;pointerEvents=1;" vertex="1" parent="gH7tVVNztH7blLq4msnQ-17">
          <mxGeometry x="120" width="60" height="52" as="geometry">
            <mxRectangle width="60" height="52" as="alternateBounds" />
          </mxGeometry>
        </mxCell>
        <mxCell id="gH7tVVNztH7blLq4msnQ-21" value="0" style="shape=partialRectangle;html=1;whiteSpace=wrap;connectable=0;strokeColor=#6c8ebf;overflow=hidden;fillColor=#dae8fc;top=0;left=0;bottom=0;right=0;pointerEvents=1;" vertex="1" parent="gH7tVVNztH7blLq4msnQ-17">
          <mxGeometry x="180" width="60" height="52" as="geometry">
            <mxRectangle width="60" height="52" as="alternateBounds" />
          </mxGeometry>
        </mxCell>
      </root>
    </mxGraphModel>
  </diagram>
</mxfile>
